<?xml version="1.0" encoding="UTF-8" standalone="no"?>
<!-- Created with Inkscape (http://www.inkscape.org/) -->

<svg
   xmlns:dc="http://purl.org/dc/elements/1.1/"
   xmlns:cc="http://creativecommons.org/ns#"
   xmlns:rdf="http://www.w3.org/1999/02/22-rdf-syntax-ns#"
   xmlns:svg="http://www.w3.org/2000/svg"
   xmlns="http://www.w3.org/2000/svg"
   xmlns:sodipodi="http://sodipodi.sourceforge.net/DTD/sodipodi-0.dtd"
   xmlns:inkscape="http://www.inkscape.org/namespaces/inkscape"
   width="1122.5601"
   height="600.96002"
   viewBox="0 0 297.01068 159.00401"
   version="1.1"
   id="svg8"
   inkscape:version="0.92.3 (2405546, 2018-03-11)"
   sodipodi:docname="Binar.svg">
  <defs
     id="defs2" />
  <sodipodi:namedview
     id="base"
     pagecolor="#ffffff"
     bordercolor="#666666"
     borderopacity="1.0"
     inkscape:pageopacity="0.0"
     inkscape:pageshadow="2"
     inkscape:zoom="0.35"
     inkscape:cx="-6.4342607"
     inkscape:cy="348.48002"
     inkscape:document-units="px"
     inkscape:current-layer="layer1"
     showgrid="false"
     inkscape:pagecheckerboard="true"
     borderlayer="true"
     units="mm"
     inkscape:window-width="1366"
     inkscape:window-height="768"
     inkscape:window-x="0"
     inkscape:window-y="0"
     inkscape:window-maximized="0"
     fit-margin-top="0"
     fit-margin-left="0"
     fit-margin-right="0"
     fit-margin-bottom="0" />
  <metadata
     id="metadata5">
    <rdf:RDF>
      <cc:Work
         rdf:about="">
        <dc:format>image/svg+xml</dc:format>
        <dc:type
           rdf:resource="http://purl.org/dc/dcmitype/StillImage" />
        <dc:title></dc:title>
      </cc:Work>
    </rdf:RDF>
  </metadata>
  <g
     inkscape:label="Layer 1"
     inkscape:groupmode="layer"
     id="layer1"
     transform="translate(13.038673,-82.031319)">
    <path
       style="fill:#ffffff;stroke-width:0.08466667"
       d="m 52.429263,196.34836 v -20.30745 l 0.6985,-0.0544 c 0.384175,-0.0299 0.860425,-0.0546 1.058334,-0.0549 l 0.359833,-8.5e-4 v 4.14867 c 0,2.28176 0.02858,4.1485 0.0635,4.1483 0.03493,0 0.30064,-0.46693 0.590478,-1.03717 3.998929,-7.86768 12.174609,-13.1496 20.89369,-13.4984 l 1.27,-0.0508 -0.02375,0.83753 c -0.07359,2.59578 -0.620641,5.3329 -1.597262,7.99187 -0.399466,1.0876 -1.509743,3.31919 -2.18148,4.38467 -3.876001,6.14786 -10.266273,10.36574 -17.27951,11.40527 -0.512234,0.0759 -1.102784,0.16459 -1.312334,0.19703 l -0.381,0.059 -0.02161,7.76735 -0.02161,7.76736 h 11.430444 11.430443 v 1.10067 1.10066 h -11.43 -11.430001 v 2.20134 2.20133 h -1.058333 -1.058334 v -20.30745 z m -24.976668,14.80412 v -1.10066 h 11.345334 11.345334 v 1.10066 1.10067 H 38.797929 27.452595 Z m 101.560695,-8.97847 c -1.29197,-0.20289 -2.30565,-0.7205 -3.22036,-1.64441 -0.77979,-0.78763 -1.18348,-1.47944 -1.5332,-2.62745 -0.21176,-0.69514 -0.23249,-0.88457 -0.23631,-2.159 -0.005,-1.61931 0.0841,-2.05417 0.66733,-3.26341 1.02658,-2.12835 3.11336,-3.34355 5.73411,-3.33912 1.64231,0.003 2.87454,0.44137 4.03511,1.43623 l 0.20037,0.17176 -0.35128,0.46527 c -0.42862,0.56772 -0.55296,0.58046 -1.23479,0.12654 -0.84268,-0.561 -1.4315,-0.71972 -2.667,-0.71892 -0.80781,8.5e-4 -1.16857,0.038 -1.524,0.15839 -1.20936,0.40956 -2.09363,1.18194 -2.62012,2.28859 -0.4552,0.95681 -0.55548,1.44345 -0.55119,2.67467 0.004,1.13154 0.1655,1.87366 0.59043,2.71221 0.85037,1.67812 2.65631,2.56472 4.66146,2.28851 0.96567,-0.13303 1.39459,-0.29882 2.12059,-0.81971 0.41753,-0.29957 0.69176,-0.44274 0.78207,-0.40833 0.0765,0.0292 0.29141,0.22579 0.47759,0.43698 l 0.33849,0.38399 -0.53027,0.48772 c -0.60579,0.55717 -1.50458,1.03327 -2.30572,1.22136 -0.69963,0.16426 -2.17761,0.2311 -2.83331,0.12813 z m -21.67841,-6.49436 2.56409,-6.4135 h 0.86455 0.86456 l 2.56568,6.4135 2.56568,6.4135 h -0.78296 c -0.64544,0 -0.80711,-0.0267 -0.92042,-0.15188 -0.0756,-0.0835 -0.41777,-0.8741 -0.76039,-1.75683 l -0.62294,-1.60496 h -2.9117 -2.91171 l -0.6203,1.60867 c -0.35621,0.92379 -0.69485,1.67174 -0.79541,1.75683 -0.13778,0.11658 -0.33368,0.14817 -0.91896,0.14817 h -0.74385 z m 4.85949,-0.93133 c -0.55368,-1.43193 -1.08756,-2.85115 -1.18638,-3.15384 -0.0988,-0.30268 -0.20792,-0.58138 -0.24243,-0.61933 -0.0345,-0.0379 -0.10885,0.11446 -0.16519,0.33867 -0.086,0.34222 -2.14605,5.78172 -2.26268,5.9745 -0.0211,0.0349 1.06449,0.0635 2.41248,0.0635 h 2.45091 z m 30.06617,7.28133 c -4e-5,-0.0349 1.14734,-2.93181 2.54975,-6.43752 l 2.5498,-6.37402 0.85398,0.024 0.85398,0.024 2.55703,6.39233 2.55703,6.39234 -0.72104,0.0246 c -0.51527,0.0176 -0.77265,-0.01 -0.90192,-0.0954 -0.12096,-0.0803 -0.3612,-0.59334 -0.72512,-1.5486 -0.29932,-0.78573 -0.59583,-1.53387 -0.65891,-1.66254 l -0.11468,-0.23394 -2.88736,0.0223 -2.88736,0.0223 -0.61653,1.59423 c -0.33908,0.87682 -0.68274,1.6674 -0.76368,1.75683 -0.124,0.13702 -0.265,0.16261 -0.89603,0.16261 -0.41188,0 -0.7489,-0.0286 -0.74894,-0.0635 z m 8.30446,-4.86833 c -1.67176,-4.33865 -2.20119,-5.74414 -2.24872,-5.96974 -0.0736,-0.3491 -0.16766,-0.29268 -0.28427,0.17042 -0.0503,0.19968 -0.56932,1.59848 -1.15342,3.10843 -0.58409,1.50996 -1.06199,2.77598 -1.06199,2.81338 0,0.0374 1.08491,0.068 2.4109,0.068 h 2.41091 z m 11.93093,-1.50601 v -6.45082 l 2.89984,0.0389 c 3.32641,0.0446 3.67118,0.0941 4.96214,0.71362 2.29066,1.09919 3.54612,3.65352 3.22798,6.56754 -0.29435,2.69594 -1.81773,4.57384 -4.31894,5.32404 -0.59367,0.17806 -0.82193,0.19185 -3.70185,0.22367 l -3.06917,0.0339 z m 5.94138,4.96047 c 1.29604,-0.27468 2.29822,-1.04189 2.86634,-2.1943 0.47707,-0.96772 0.61606,-1.70931 0.56544,-3.017 -0.097,-2.50666 -1.20756,-4.08274 -3.25203,-4.61525 -0.36162,-0.0942 -0.9827,-0.12608 -2.45591,-0.12608 h -1.97188 v 5.03767 5.03766 l 1.8415,-0.001 c 1.25942,-0.001 2.0201,-0.0393 2.40654,-0.12122 z m 14.29396,-4.9573 v -6.43466 h 3.937 3.937 v 0.71966 0.71967 h -3.09033 -3.09034 v 2.159 2.159 h 2.49767 2.49767 v 0.635 0.635 h -2.49767 -2.49767 v 2.24367 2.24366 h 3.09034 3.09033 v 0.67734 0.67733 h -3.937 -3.937 z m 17.03863,0.0212 0.0217,-6.4135 h 0.78102 c 0.67147,0 0.80338,0.0238 0.94037,0.16933 0.19316,0.20527 4.67718,8.24782 4.8543,8.7067 l 0.12533,0.3247 0.38732,-0.79037 c 0.21302,-0.43469 1.31977,-2.48518 2.45945,-4.55664 1.65129,-3.00138 2.11302,-3.77774 2.27351,-3.82272 0.11075,-0.0311 0.49665,-0.0603 0.85754,-0.0649 l 0.65616,-0.008 v 6.43467 6.43466 h -0.71901 -0.71901 l -0.0218,-5.14197 -0.0218,-5.14197 -2.14966,3.93547 c -1.18231,2.16451 -2.24152,4.0593 -2.35381,4.21064 -0.18242,0.24588 -0.24875,0.27517 -0.62318,0.27517 -0.2922,0 -0.46387,-0.0461 -0.56719,-0.15242 -0.0815,-0.0838 -1.15781,-1.9688 -2.39183,-4.18885 -1.23402,-2.22004 -2.26272,-4.03741 -2.286,-4.03861 -0.0233,-0.001 -0.0319,2.30289 -0.0192,5.12019 l 0.0231,5.12235 h -0.76445 -0.76446 l 0.0217,-6.4135 z m 26.39537,3.8797 v -2.53381 l -2.24677,-3.7429 c -1.23573,-2.05859 -2.28678,-3.81766 -2.33569,-3.90902 -0.086,-0.16077 -0.0614,-0.16519 0.76293,-0.1368 0.71615,0.0247 0.87826,0.0563 1.01776,0.19866 0.22178,0.22634 3.19804,5.37128 3.46695,5.99316 l 0.21179,0.48983 0.26628,-0.5745 c 0.39058,-0.84268 3.22792,-5.72671 3.43687,-5.91601 0.14509,-0.13146 0.33766,-0.16733 1.02666,-0.19122 0.46645,-0.0162 0.82844,0.003 0.80444,0.0423 -0.024,0.0395 -1.09535,1.81555 -2.38076,3.94686 l -2.33713,3.87511 v 2.49606 2.49605 h -0.84666 -0.84667 z m -177.419007,-5.2564 c -5.576515,-0.85173 -10.422125,-3.34794 -14.313271,-7.37347 -1.812775,-1.87537 -3.192641,-3.84983 -4.402342,-6.29933 -1.545544,-3.12954 -2.399247,-6.39603 -2.55023,-9.75784 l -0.05419,-1.2065 h 0.766209 c 3.505939,0 7.923133,1.2073 11.291005,3.08603 2.16271,1.20644 3.711453,2.39035 5.585986,4.27012 2.037659,2.04335 3.661987,4.29806 4.785865,6.6432 l 0.287963,0.60088 v 5.10355 5.10356 l -0.1905,-0.008 c -0.104775,-0.004 -0.6477,-0.0773 -1.2065,-0.16268 z M 171.21281,178.14944 c -1.43055,-1.44485 -5.2114,-5.0736 -10.07255,-9.66733 -7.27126,-6.87126 -10.65196,-10.18441 -11.62151,-11.3893 -0.37471,-0.46566 -0.70376,-0.87334 -0.73122,-0.90595 -0.0275,-0.0326 -0.0392,4.89181 -0.026,10.94316 l 0.0239,11.00246 h -2.75438 -2.75439 v -17.33471 -17.3347 l 1.67217,1.65409 c 2.22011,2.19611 2.66112,2.61115 7.59883,7.15146 2.32833,2.14094 4.86198,4.48378 5.63033,5.20631 0.76835,0.72253 2.29235,2.1479 3.38667,3.16748 3.23313,3.01233 4.52963,4.32478 5.0944,5.15704 0.27916,0.41138 0.52662,0.7289 0.54991,0.70561 0.0233,-0.0233 0.001,-0.45223 -0.0493,-0.95317 -0.06,-0.59651 -0.0917,-4.3096 -0.0917,-10.75978 v -9.84896 h 2.75166 2.75167 v 17.272 c 0,9.4996 -0.01,17.2701 -0.0212,17.26779 -0.0116,-0.002 -0.61342,-0.60239 -1.33729,-1.3335 z M 94.169932,161.53891 v -16.60648 l 5.693833,0.0311 c 5.497315,0.03 5.730355,0.0378 6.752165,0.22491 2.92696,0.53601 4.89921,1.64379 6.09207,3.42183 1.24611,1.85742 1.62523,5.06535 0.92743,7.84753 -0.52475,2.09223 -2.07974,3.91552 -3.9121,4.58708 -0.27001,0.099 -0.46051,0.20581 -0.42333,0.23743 0.0372,0.0316 0.31485,0.1238 0.61706,0.20483 3.7592,1.00795 5.86359,4.05873 5.64418,8.18248 -0.12296,2.31096 -0.9539,4.15346 -2.54414,5.64131 -1.47476,1.3798 -3.3141,2.18581 -5.97783,2.61953 -0.76159,0.12401 -1.74757,0.14978 -6.87917,0.17983 l -5.990168,0.0351 z m 10.714668,11.51945 c 1.6608,-0.1608 3.11148,-0.73333 3.9506,-1.55915 1.13533,-1.11734 1.55586,-3.05867 1.00666,-4.64713 -0.42454,-1.22792 -1.53452,-2.20876 -3.08381,-2.72501 -0.96404,-0.32123 -1.89009,-0.40741 -4.50245,-0.41899 l -2.540001,-0.0113 -0.02188,4.72017 -0.02188,4.72017 2.223211,-0.002 c 1.22277,-0.001 2.56807,-0.0357 2.98955,-0.0765 z m 0.35637,-14.18802 c 1.988,-0.46872 3.23415,-2.22976 3.23491,-4.57153 8.5e-4,-1.77926 -0.7411,-3.0824 -2.14231,-3.76407 -1.02708,-0.49966 -1.30333,-0.53844 -4.09914,-0.57544 l -2.561165,-0.0339 v 4.53621 4.5362 l 2.518835,-10e-4 c 1.92132,-9.6e-4 2.64456,-0.0309 3.04887,-0.12622 z m 20.42496,2.66747 v -16.59466 h 2.794 2.794 v 16.59466 16.59467 h -2.794 -2.794 z m 55.47129,15.98084 c 1.71127,-4.02363 6.07038,-14.21015 7.18285,-16.78517 1.35665,-3.14018 7.11974,-16.61322 7.29757,-17.06033 0.0811,-0.20394 0.0919,-0.19467 0.29439,0.254 0.51576,1.14255 13.56519,31.5715 14.55093,33.93017 l 0.115,0.27516 h -2.72617 -2.72619 l -1.03685,-2.47635 c -0.57027,-1.36229 -1.39223,-3.3339 -1.82657,-4.38165 l -0.78972,-1.905 h -5.74595 -5.74595 l -1.82476,4.3815 -1.82476,4.3815 h -2.72744 -2.72745 z m 18.35805,-12.83105 c 0,-0.0371 -0.76451,-1.91357 -1.6989,-4.16983 -0.93439,-2.25626 -1.7896,-4.40709 -1.90049,-4.77962 -0.11088,-0.37254 -0.20363,-0.65372 -0.20611,-0.62485 -0.0363,0.42301 -0.81293,2.46259 -2.14718,5.63897 -0.90412,2.1524 -1.62373,3.93358 -1.59914,3.95817 0.0733,0.0733 7.55182,0.0506 7.55182,-0.0228 z m 19.38867,-3.15463 v -16.59952 l 5.73616,0.0303 c 5.53477,0.0292 5.77036,0.037 6.70984,0.22054 3.75979,0.73459 6.3681,2.50817 7.80336,5.30609 0.7357,1.43417 1.06496,2.74764 1.14573,4.57043 0.11193,2.52609 -0.49768,5.04549 -1.68696,6.97179 -0.53363,0.86434 -1.89664,2.27839 -2.66823,2.76814 -0.29063,0.18447 -0.52875,0.36813 -0.52917,0.40813 -8.4e-4,0.084 2.88593,4.68866 5.97891,9.53694 l 2.13353,3.34434 -3.23085,0.0222 c -1.77697,0.0122 -3.2729,0.006 -3.32429,-0.0137 -0.0514,-0.0197 -0.94393,-1.3632 -1.98341,-2.98552 -2.65329,-4.14097 -4.42816,-6.88879 -5.00878,-7.7545 l -0.49688,-0.74084 h -2.53781 -2.53782 v 5.75734 5.75733 h -2.75167 -2.75166 z m 11.938,-0.28424 c 0.91285,-0.29515 1.62223,-0.73279 2.33833,-1.44261 1.05178,-1.04256 1.51118,-2.10581 1.61133,-3.72931 0.0546,-0.88561 -0.15368,-2.06929 -0.49917,-2.83633 -0.47682,-1.05862 -1.40081,-2.00396 -2.47611,-2.53333 -1.04471,-0.51431 -1.25116,-0.54105 -4.46688,-0.57849 l -2.94217,-0.0342 v 5.686 5.68599 l 2.9845,-0.0335 c 2.56777,-0.0289 3.04953,-0.0546 3.45017,-0.18412 z m -178.392677,3.1779 v -9.32348 h 0.924409 c 0.508425,0 0.984675,-0.0231 1.058333,-0.0514 0.121013,-0.0464 0.133925,0.35354 0.133925,4.14866 0,2.31003 0.02858,4.19832 0.0635,4.19619 0.03493,-0.002 0.243364,-0.3736 0.463198,-0.8255 2.241063,-4.6068 6.294208,-8.69155 10.963777,-11.04925 3.348493,-1.69068 6.497586,-2.5231 10.332021,-2.73113 l 1.036828,-0.0563 -0.03916,0.36916 c -0.02153,0.20305 -0.05977,0.81906 -0.08498,1.36892 -0.15803,3.44751 -1.351313,7.42815 -3.184178,10.62197 -3.588731,6.25348 -9.543994,10.59435 -16.569431,12.07768 -1.173304,0.24773 -2.673777,0.43806 -4.103409,0.52053 l -0.994834,0.0574 z m -2.582333,9.15231 c -1.345442,-0.12648 -3.409,-0.53953 -4.732649,-0.94732 -3.987175,-1.22836 -7.393251,-3.27903 -10.338854,-6.22464 -1.971254,-1.97125 -3.505183,-4.10768 -4.735591,-6.59563 -1.546735,-3.12759 -2.415226,-6.45578 -2.559748,-9.80937 l -0.05382,-1.24883 0.288329,1.7e-4 c 0.581575,4.2e-4 2.588046,0.17736 3.416056,0.30126 2.845682,0.4258 5.959516,1.48735 8.429864,2.87386 2.001184,1.12319 3.833514,2.51776 5.5039,4.18898 1.828113,1.82903 3.353706,3.91228 4.509496,6.15787 l 0.570666,1.10875 -0.02183,5.10937 -0.02183,5.10937 -0.254,-0.0239 z m -1.100667,-20.89505 c -2.716576,-0.41661 -5.062866,-1.16054 -7.493,-2.37578 -5.967441,-2.98415 -10.423118,-8.11971 -12.540678,-14.45424 -0.749069,-2.24079 -1.25999,-5.15573 -1.25999,-7.18858 v -0.68124 l 1.164167,0.0574 c 8.866591,0.43729 16.908505,5.59385 20.919345,13.41371 l 0.607156,1.18376 v 5.0891 5.08911 l -0.3175,-0.008 c -0.174625,-0.005 -0.6604,-0.0608 -1.0795,-0.12506 z m 3.683,-7.25814 v -7.39139 l -0.398195,-0.54611 c -3.872204,-5.31056 -5.460657,-11.84741 -4.423593,-18.20411 0.722833,-4.43062 2.589901,-8.6159 5.523554,-12.3818 l 0.382597,-0.49113 0.737484,0.98187 c 2.775607,3.6954 4.526509,7.81075 5.223361,12.27706 0.250104,1.60299 0.270805,5.13349 0.03922,6.68867 -0.599194,4.02383 -2.041497,7.60399 -4.411166,10.94965 l -0.559293,0.78965 0.02252,2.30068 0.02252,2.30069 0.55604,-1.05833 c 1.857705,-3.53585 4.259271,-6.3842 7.30304,-8.66168 4.004901,-2.99664 8.768263,-4.69903 13.826933,-4.94164 l 1.12522,-0.054 -0.03576,0.28814 c -0.01967,0.15847 -0.05587,0.78344 -0.08044,1.3888 -0.193658,4.77106 -2.190318,9.97154 -5.347369,13.92767 -0.7402,0.92756 -2.833863,3.02085 -3.758658,3.758 -3.099746,2.47079 -6.730983,4.17213 -10.583334,4.95861 -1.504333,0.30712 -3.239276,0.51182 -4.339167,0.51195 l -0.8255,1.1e-4 z"
       id="path823"
       inkscape:connector-curvature="0" />
  </g>
</svg>
